<svg xmlns="http://www.w3.org/2000/svg" width="36" height="36" viewBox="0 0 36 36">
    <path fill="#00ABDB" fill-rule="evenodd" d="M34 28.862c0-3.046-13.328-3.2-16-3.2-.845 0-1.673.01-2.481.032a.738.738 0 0 0-.719.757c.01.408.348.738.758.719.795-.02 1.611-.032 2.442-.032 7.974 0 13.314.973 14.401 1.724-1.087.75-6.427 1.723-14.401 1.723-7.939 0-13.266-.964-14.386-1.713.263-.164.895-.457 2.331-.765a.739.739 0 0 0-.31-1.445C3.088 27.21 2 27.867 2 28.862c0 3.045 13.328 3.2 16 3.2 2.672 0 16-.155 16-3.2zM25.163 6.614l2.777 2.777 1.562-1.562c.37-.371.575-.864.575-1.389 0-.524-.204-1.017-.575-1.388a1.951 1.951 0 0 0-1.388-.575c-.525 0-1.018.204-1.39.575l-1.56 1.562zm2.777 4.865l-4.866-4.865 2.607-2.606A3.42 3.42 0 0 1 28.114 3c.918 0 1.782.358 2.432 1.008a3.417 3.417 0 0 1 1.008 2.432c0 .919-.358 1.783-1.008 2.433l-2.606 2.606zm-16.271 8.629L9.944 24.61l4.502-1.726L24.812 12.52l-2.777-2.777-10.366 10.366zm-4.29 7.067l3.024-7.889L22.035 7.654l4.865 4.865L15.268 24.15 7.38 27.175z"/>
</svg>
