<svg xmlns="http://www.w3.org/2000/svg" xmlns:xlink="http://www.w3.org/1999/xlink" width="36" height="36" viewBox="0 0 36 36">
    <defs>
        <path id="a" d="M0 0H12.11v32H0z"/>
    </defs>
    <g fill="none" fill-rule="evenodd">
        <path fill="#454A52" d="M32.242 21.375h-1.687l2.067-1.125c.404-.234.692-.577.814-1.029.12-.452.058-.906-.175-1.31l-4.089-7.06a1.731 1.731 0 0 0-1.064-.808 1.741 1.741 0 0 0-1.327.177l-2.846 1.647 1.77-2.738c.255-.395.338-.863.234-1.32a1.714 1.714 0 0 0-.784-1.088l-7.311-4.465a1.763 1.763 0 0 0-2.409.572l-2.721 4.373a.75.75 0 0 0 1.274.792l2.72-4.373a.263.263 0 0 1 .355-.084l7.31 4.465a.223.223 0 0 1 .072.314l-11.52 17.83a.75.75 0 1 0 1.26.814l7.961-12.323 5.386-3.115a.253.253 0 0 1 .342.09l4.088 7.069a.251.251 0 0 1-.091.342L12.976 29.954a.75.75 0 0 0 .376 1.4c.127 0 .256-.103.375-.171l14.236-8.308h4.279c.136 0 0 .256 0 .391v8.61c0 .135.136.5 0 .5H10.75a.75.75 0 1 0 0 1.5h21.492c.965 0 1.5-1.036 1.5-2v-8.61c0-.964-.535-1.89-1.5-1.89"/>
        <g transform="translate(2 2.5)">
            <mask id="b" fill="#fff">
                <use xlink:href="#a"/>
            </mask>
            <path fill="#00ABDB" d="M6.054 25.37a.577.577 0 1 0 .002 1.153.577.577 0 0 0-.002-1.153zm0 2.652a2.078 2.078 0 0 1-2.076-2.076c0-1.145.931-2.076 2.076-2.076s2.076.931 2.076 2.076a2.078 2.078 0 0 1-2.076 2.076zM1.75 1.5a.253.253 0 0 0-.25.25v28.5c0 .136.114.25.25.25h8.609c.136 0 .25-.114.25-.25V1.75a.253.253 0 0 0-.25-.25H1.75zM10.36 32H1.75C.785 32 0 31.215 0 30.25V1.75C0 .785.785 0 1.75 0h8.609c.965 0 1.75.785 1.75 1.75v28.5c0 .965-.785 1.75-1.75 1.75z" mask="url(#b)"/>
        </g>
    </g>
</svg>
