<svg xmlns="http://www.w3.org/2000/svg" width="36" height="36" viewBox="0 0 36 36">
    <path fill="#e5e7eb" fill-rule="evenodd" d="M21.422 32.269c1.199-1.358 2.192-3.448 2.872-6.023 2.141.494 3.425 1.201 4.392 1.797a14.679 14.679 0 0 1-7.264 4.226m-14.13-4.25c1.109-.645 2.394-1.379 4.661-1.86.693 2.665 1.721 4.817 2.965 6.187a14.671 14.671 0 0 1-7.626-4.326m7.626-24.366c-1.192 1.314-2.186 3.345-2.877 5.86-2.273-.458-3.586-1.149-4.554-1.738a14.666 14.666 0 0 1 7.43-4.122m13.555 4.08c-1.02.593-2.199 1.263-4.259 1.722-.676-2.438-1.639-4.42-2.79-5.725a14.672 14.672 0 0 1 7.049 4.002M25.28 18.737h7.377a14.61 14.61 0 0 1-3.095 8.324c-1.075-.671-2.498-1.489-4.961-2.055.401-1.906.64-4.057.679-6.269m4.095-9.957c1.93 2.367 3.137 5.238 3.282 8.63H25.28c-.042-2.507-.304-4.642-.744-6.624 2.265-.507 3.55-1.255 4.674-1.91l.165-.096M18 11.344c2.141 0 3.847-.097 5.24-.314.412 1.853.671 4.02.713 6.38H12.317c.041-2.36.297-4.5.705-6.344 1.366.195 2.998.278 4.978.278m.097-8.015l.124.001c1.761.075 3.587 2.443 4.693 6.368-1.305.197-2.905.319-4.914.319-1.85 0-3.377-.108-4.654-.285 1.115-3.981 2.97-6.37 4.751-6.403M6.592 8.82c1.073.666 2.518 1.51 5.13 2.04-.433 1.968-.69 4.19-.732 6.55H3.343a14.674 14.674 0 0 1 3.249-8.59m-.177 18.21a14.572 14.572 0 0 1-3.072-8.294h7.647c.039 2.212.272 4.286.663 6.172-2.513.537-3.929 1.36-5.082 2.032l-.156.09m11.529-2.724c-1.998 0-3.632.162-4.993.367-.367-1.765-.595-3.872-.634-5.937h11.636c-.04 2.212-.273 4.217-.646 5.997a32.462 32.462 0 0 0-5.363-.427m.277 8.363l-.124.002c-1.83-.035-3.74-2.559-4.843-6.743 1.272-.184 2.804-.295 4.69-.295 2.036 0 3.69.138 5.055.36-1.096 4.109-2.971 6.6-4.778 6.676M34 18c0-8.738-7.041-15.862-15.748-15.997L18.135 2l-.043.001L18 2C9.178 2 2 9.178 2 18s7.178 16 16 16l.092-.001.043.001.117-.003C26.959 33.862 34 26.738 34 18"/>
</svg>
