<svg xmlns="http://www.w3.org/2000/svg" width="36" height="36" viewBox="0 0 36 36">
    <g fill="none" fill-rule="evenodd">
        <path fill="#000" d="M14.338 6.98h19.185V5.455H14.338V6.98zm0 11.737h19.185v-1.525H14.338v1.525zm0 11.285h19.185v-1.524H14.338v1.524z"/>
        <path fill="#00ABDB" d="M9.074 2L5.711 7.822 3.078 5.188 2 6.266l4.037 4.037 4.356-7.542L9.074 2zM5.711 19.558l-2.633-2.633L2 18.003l4.037 4.036 4.356-7.541-1.319-.762-3.363 5.822zm0 11.286L3.078 28.21 2 29.288l4.037 4.037 4.356-7.541-1.319-.762-3.363 5.822z"/>
    </g>
</svg>
