<svg xmlns="http://www.w3.org/2000/svg" xmlns:xlink="http://www.w3.org/1999/xlink" width="36" height="36" viewBox="0 0 36 36">
    <defs>
        <path id="a" d="M0 31h32V0H0z"/>
    </defs>
    <g fill="none" fill-rule="evenodd" transform="translate(2 3)">
        <path fill="#454A52" d="M30.411 22H1.588C.711 22 0 22.711 0 23.588v5.823C0 30.29.711 31 1.588 31h28.823C31.29 31 32 30.289 32 29.412v-5.823C32 22.71 31.289 22 30.41 22m0 1.5c.05 0 .089.04.089.088v5.823c0 .05-.04.089-.089.089H1.588a.089.089 0 0 1-.088-.088v-5.823c0-.05.04-.089.088-.089h28.823m0-12.5H1.588C.711 11 0 11.711 0 12.588v5.824C0 19.288.711 20 1.588 20h28.823C31.29 20 32 19.289 32 18.412v-5.823C32 11.71 31.289 11 30.41 11m0 1.5c.05 0 .089.04.089.088v5.824c0 .049-.04.088-.089.088H1.588a.089.089 0 0 1-.088-.088v-5.823c0-.05.04-.089.088-.089h28.823m0-12.5H1.588C.711 0 0 .711 0 1.589v5.823C0 8.289.711 9 1.588 9h28.823C31.29 9 32 8.289 32 7.412V1.588C32 .711 31.289 0 30.41 0m0 1.5c.05 0 .089.04.089.089v5.823c0 .048-.04.088-.089.088H1.588a.089.089 0 0 1-.088-.088V1.588c0-.048.04-.088.088-.088h28.823"/>
        <path fill="#29ABE2" d="M5 24.5a2 2 0 1 0 0 4 2 2 0 0 0 0-4m0-11a2 2 0 1 0 0 4 2 2 0 0 0 0-4m2-9a2 2 0 1 1-4 0 2 2 0 0 1 4 0"/>
        <mask id="b" fill="#fff">
            <use xlink:href="#a"/>
        </mask>
        <path fill="#00ABDB" d="M9 28h10.495v-1H9v1zm0-2h18v-1H9v1zm0-9h10.495v-1H9v1zm0-2h18v-1H9v1zm0-9h10.495V5H9v1zm0-2h18V3H9v1z" mask="url(#b)" opacity=".252"/>
    </g>
</svg>
