<svg xmlns="http://www.w3.org/2000/svg" width="36" height="36" viewBox="0 0 36 36">
    <g fill="none" fill-rule="evenodd">
        <path fill="#454A52" d="M14.338 25.63h6.893v-1.476h-6.893v1.477zm0-4.922H23.2V19.23h-8.862v1.477zm0-5.416H23.2v-1.477h-8.862v1.477zm13.785 9.76c0 3.984-3.358 7.471-7.342 7.471H9.415V7.415h18.708v17.638zm-22.646 3.04V3.477h18.708v2.461H7.938v22.154H5.477zM25.662 5.938V2H4v27.57h3.938V34h12.843c4.798 0 8.819-4.15 8.819-8.947V5.938h-3.938z"/>
        <path fill="#29ABE2" d="M33 28.5a5.5 5.5 0 1 1-11 0 5.5 5.5 0 0 1 11 0"/>
        <path fill="#FFF" d="M28 28h2v1h-2v2h-1v-2h-2v-1h2v-2h1v2z"/>
    </g>
</svg>
