<svg xmlns="http://www.w3.org/2000/svg" width="36" height="36" viewBox="0 0 36 36">
    <path fill="#ffffff" fill-rule="evenodd" d="M13.385 23.17h7.877v-1.478h-7.877v1.477zm0-5.416h10.83v-1.477h-10.83v1.477zm0-5.416h10.83v-1.476h-10.83v1.476zm15.753 12.715c0 4.119-3.13 7.47-6.978 7.47H8.462v-3.938h.984v-1.477h-.984v-5.416h.984v-1.477h-.984V14.8h.984v-1.477h-.984V7.908h.984V6.43h-.984V3.477h20.676v21.576zM6.985 2v4.43H6v1.478h.985v5.415H6V14.8h.985v5.415H6v1.477h.985v5.416H6v1.477h.985V34H22.16c4.663 0 8.455-4.014 8.455-8.947V2H6.985z"/>
</svg>
