<svg xmlns="http://www.w3.org/2000/svg" xmlns:xlink="http://www.w3.org/1999/xlink" width="36" height="36" viewBox="0 0 36 36">
    <defs>
        <path id="a" d="M.118.143h23.759v15.119H.118z"/>
        <path id="c" d="M.098.343h23.779V15.39H.098z"/>
        <path id="e" d="M0 .375h8.947v8.947H0z"/>
    </defs>
    <g fill="none" fill-rule="evenodd">
        <g transform="translate(9.877 17.754)">
            <mask id="b" fill="#fff">
                <use xlink:href="#a"/>
            </mask>
            <path fill="#0F2731" d="M19.157 13.785a3.247 3.247 0 0 1-3.243-3.243 3.247 3.247 0 0 1 3.243-3.243 3.247 3.247 0 0 1 3.243 3.243 3.247 3.247 0 0 1-3.243 3.243m0-7.963a4.713 4.713 0 0 0-3.823 1.964L.806.143.118 1.45l14.546 7.652a4.701 4.701 0 0 0-.227 1.44 4.725 4.725 0 0 0 4.72 4.72 4.725 4.725 0 0 0 4.72-4.72 4.725 4.725 0 0 0-4.72-4.72" mask="url(#b)"/>
        </g>
        <g transform="translate(9.877 2)">
            <mask id="d" fill="#fff">
                <use xlink:href="#c"/>
            </mask>
            <path fill="#0F2731" d="M19.157 1.82A3.247 3.247 0 0 1 22.4 5.061a3.247 3.247 0 0 1-3.243 3.243 3.247 3.247 0 0 1-3.243-3.243 3.247 3.247 0 0 1 3.243-3.243zM.786 15.39L15.29 7.76a4.714 4.714 0 0 0 3.867 2.022 4.725 4.725 0 0 0 4.72-4.72 4.725 4.725 0 0 0-4.72-4.72 4.725 4.725 0 0 0-4.72 4.72c0 .477.073.936.205 1.37L.098 14.082l.688 1.308z" mask="url(#d)"/>
        </g>
        <g transform="translate(2 12.83)">
            <mask id="f" fill="#fff">
                <use xlink:href="#e"/>
            </mask>
            <path fill="#29ABE2" d="M8.947 4.848a4.473 4.473 0 1 1-8.947 0 4.473 4.473 0 0 1 8.947 0" mask="url(#f)"/>
        </g>
    </g>
</svg>
