<svg xmlns="http://www.w3.org/2000/svg" width="36" height="36" viewBox="0 0 36 36">
    <path fill="#00ABDB" fill-rule="evenodd" d="M29.265 27.537a.802.802 0 1 0 0 1.603.802.802 0 0 0 0-1.603zm4.166.795v-.886h-8.37v1.046h-.207c.074.379.408.523.81.523h7.203c.455 0 .564-.228.564-.683zM2.569 26.923h20.923v-5.23H4.848l-2.279 3.884v1.346zM25.062 13.11v12.768h8.369V13.109c0-.455-.109-.832-.564-.832h-7.204c-.455 0-.601.377-.601.832zm9.938 0v15.223c0 1.32-.812 2.253-2.133 2.253h-7.204c-1.266 0-2.295-.848-2.378-2.093H1v-3.286l2.615-4.633V9.176C3.615 7.466 4.97 6 6.68 6h17.373c1.71 0 3.1 1.57 3.1 3.138h-1.568c0-1.046-.687-1.569-1.532-1.569H6.68c-.845 0-1.495.762-1.495 1.607v10.947h18.307V13.11c0-1.32.85-2.401 2.171-2.401h7.204c1.32 0 2.133 1.08 2.133 2.401zM11.985 26.4h6.8v-1.57h-6.8v1.57z"/>
</svg>
