<svg xmlns="http://www.w3.org/2000/svg" width="24" height="24" viewBox="0 0 24 24">
    <path fill="#334D57" fill-rule="evenodd" d="M24 4.309a9.82 9.82 0 0 1-2.828.775 4.937 4.937 0 0 0 2.165-2.724 9.854 9.854 0 0 1-3.127 1.194 4.924 4.924 0 0 0-8.39 4.491A13.981 13.981 0 0 1 1.67 2.902a4.9 4.9 0 0 0-.666 2.476c0 1.708.87 3.215 2.19 4.098a4.905 4.905 0 0 1-2.23-.616v.062a4.928 4.928 0 0 0 3.95 4.828 4.928 4.928 0 0 1-2.224.084 4.928 4.928 0 0 0 4.6 3.42 9.879 9.879 0 0 1-6.115 2.108c-.398 0-.79-.024-1.175-.07a13.935 13.935 0 0 0 7.548 2.213c9.057 0 14.01-7.503 14.01-14.01 0-.213-.005-.425-.015-.637A10 10 0 0 0 24 4.31"/>
</svg>
