<?xml version="1.0" encoding="UTF-8"?>
<svg width="259px" height="44px" viewBox="0 0 259 44" version="1.1" xmlns="http://www.w3.org/2000/svg" xmlns:xlink="http://www.w3.org/1999/xlink">
    <!-- Generator: Sketch 51.2 (57519) - http://www.bohemiancoding.com/sketch -->
    <title>White/SAPLogoWhite</title>
    <desc>Created with Sketch.</desc>
    <defs></defs>
    <g id="SAPLogo" stroke="none" stroke-width="1" fill="none" fill-rule="evenodd">
        <g id="Regular" transform="translate(-15.000000, -74.000000)">
            <g id="White/SAPLogoWhite" transform="translate(15.000000, 74.000000)">
                <path d="M69.44,33.396 C75.344,33.396 78.368,30.3 78.368,26.016 C78.368,22.02 75.956,19.824 71.168,19.176 L69.98,18.996 C66.2,18.492 64.832,17.124 64.832,15.072 C64.832,12.732 66.488,11.112 69.476,11.112 C71.564,11.112 73.4,11.724 75.38,12.948 C75.56,13.056 75.74,13.056 75.884,12.876 L77.108,10.896 C77.252,10.716 77.216,10.536 77.036,10.392 C75.236,9.06 72.464,8.124 69.584,8.124 C64.724,8.124 61.592,10.932 61.592,15.288 C61.592,19.14 64.04,21.408 68.792,22.056 L70.016,22.236 C73.94,22.74 75.128,24.144 75.128,26.232 C75.128,28.716 73.112,30.408 69.728,30.408 C66.92,30.408 64.472,29.148 62.888,27.888 C62.708,27.744 62.528,27.744 62.384,27.924 L60.8,29.796 C60.656,29.976 60.692,30.192 60.836,30.336 C62.636,31.992 65.984,33.396 69.44,33.396 L69.44,33.396 Z M84.444,11.868 C84.66,11.868 84.804,11.724 84.804,11.508 L84.804,8.88 C84.804,8.664 84.66,8.52 84.444,8.52 L81.996,8.52 C81.78,8.52 81.636,8.664 81.636,8.88 L81.636,11.508 C81.636,11.724 81.78,11.868 81.996,11.868 L84.444,11.868 Z M84.372,33 C84.588,33 84.732,32.856 84.732,32.64 L84.732,16.116 C84.732,15.9 84.588,15.756 84.372,15.756 L82.068,15.756 C81.852,15.756 81.708,15.9 81.708,16.116 L81.708,32.64 C81.708,32.856 81.852,33 82.068,33 L84.372,33 Z M95.752,33.18 C95.968,33.18 96.112,33.036 96.112,32.82 L96.112,30.732 C96.112,30.516 95.968,30.372 95.752,30.372 L94.996,30.372 C93.448,30.372 92.8,29.904 92.8,28.176 L92.8,18.42 C92.8,18.276 92.872,18.204 93.016,18.204 L95.752,18.204 C95.968,18.204 96.112,18.06 96.112,17.844 L96.112,16.116 C96.112,15.9 95.968,15.756 95.752,15.756 L93.016,15.756 C92.872,15.756 92.8,15.684 92.8,15.54 L92.8,10.68 C92.8,10.464 92.656,10.32 92.44,10.32 L90.136,10.32 C89.92,10.32 89.776,10.464 89.776,10.68 L89.776,15.54 C89.776,15.684 89.704,15.756 89.56,15.756 L88.12,15.756 C87.904,15.756 87.76,15.9 87.76,16.116 L87.76,17.844 C87.76,18.06 87.904,18.204 88.12,18.204 L89.56,18.204 C89.704,18.204 89.776,18.276 89.776,18.42 L89.776,28.284 C89.776,31.668 91.072,33.18 94.42,33.18 L95.752,33.18 Z M106.516,33.396 C109.54,33.396 111.88,32.172 113.248,30.444 C113.392,30.264 113.392,30.084 113.212,29.94 L111.736,28.608 C111.556,28.464 111.376,28.5 111.196,28.68 C110.26,29.76 108.82,30.588 106.768,30.588 C104.644,30.588 103.096,29.58 102.412,27.6 C102.232,27.024 102.124,26.448 102.124,25.512 C102.124,25.368 102.196,25.296 102.34,25.296 L113.248,25.296 C113.5,25.296 113.644,25.152 113.644,24.936 C113.644,22.308 113.464,21.12 113.104,20.004 C112.132,17.052 109.648,15.36 106.336,15.36 C103.06,15.36 100.54,17.016 99.568,20.004 C99.208,21.048 99.028,22.38 99.028,24.36 C99.028,26.34 99.244,27.6 99.604,28.716 C100.54,31.704 103.024,33.396 106.516,33.396 L106.516,33.396 Z M102.34,22.884 C102.196,22.884 102.124,22.812 102.124,22.668 C102.124,21.876 102.196,21.264 102.376,20.724 C102.952,18.996 104.392,18.024 106.336,18.024 C108.28,18.024 109.72,18.996 110.296,20.724 C110.476,21.264 110.548,21.876 110.548,22.668 C110.548,22.812 110.476,22.884 110.332,22.884 L102.34,22.884 Z M124.716,32.64 C124.644,32.856 124.752,33 124.968,33 L127.488,33 C127.704,33 127.848,32.892 127.956,32.64 L129.828,27.312 L139.728,27.312 L141.6,32.64 C141.672,32.892 141.816,33 142.068,33 L144.588,33 C144.804,33 144.912,32.856 144.84,32.64 L136.452,8.88 C136.38,8.664 136.236,8.52 135.984,8.52 L133.644,8.52 C133.392,8.52 133.284,8.664 133.212,8.88 L124.716,32.64 Z M130.872,24.36 L134.76,13.236 L134.832,13.236 L138.684,24.36 L130.872,24.36 Z M160.932,33 C161.148,33 161.292,32.856 161.292,32.64 L161.292,16.116 C161.292,15.9 161.148,15.756 160.932,15.756 L158.628,15.756 C158.412,15.756 158.268,15.9 158.268,16.116 L158.268,26.34 C158.268,28.932 156.72,30.588 154.38,30.588 C151.824,30.588 150.564,28.968 150.564,26.16 L150.564,16.116 C150.564,15.9 150.42,15.756 150.204,15.756 L147.9,15.756 C147.684,15.756 147.54,15.9 147.54,16.116 L147.54,26.88 C147.54,30.804 149.736,33.396 153.516,33.396 C155.748,33.396 157.332,32.46 158.232,31.02 L158.268,31.02 L158.268,32.64 C158.268,32.856 158.412,33 158.628,33 L160.932,33 Z M177.98,33 C178.196,33 178.34,32.856 178.34,32.64 L178.34,8.88 C178.34,8.664 178.196,8.52 177.98,8.52 L175.676,8.52 C175.46,8.52 175.316,8.664 175.316,8.88 L175.316,17.736 L175.28,17.736 C174.452,16.368 172.976,15.36 170.384,15.36 C167.396,15.36 165.308,16.764 164.444,19.5 C163.976,20.868 163.832,22.236 163.832,24.36 C163.832,26.52 163.976,27.888 164.444,29.256 C165.308,31.992 167.396,33.396 170.384,33.396 C172.976,33.396 174.452,32.352 175.28,30.984 L175.316,30.984 L175.316,32.64 C175.316,32.856 175.46,33 175.676,33 L177.98,33 Z M171.104,30.588 C169.196,30.588 167.9,29.652 167.324,27.96 C167.036,27.06 166.928,25.944 166.928,24.36 C166.928,22.812 167.036,21.696 167.324,20.76 C167.9,19.068 169.196,18.168 171.104,18.168 C173.012,18.168 174.344,19.032 174.92,20.76 C175.208,21.624 175.316,22.632 175.316,24.36 C175.316,26.088 175.208,27.132 174.92,27.96 C174.344,29.688 173.012,30.588 171.104,30.588 L171.104,30.588 Z M185.26,11.868 C185.476,11.868 185.62,11.724 185.62,11.508 L185.62,8.88 C185.62,8.664 185.476,8.52 185.26,8.52 L182.812,8.52 C182.596,8.52 182.452,8.664 182.452,8.88 L182.452,11.508 C182.452,11.724 182.596,11.868 182.812,11.868 L185.26,11.868 Z M185.188,33 C185.404,33 185.548,32.856 185.548,32.64 L185.548,16.116 C185.548,15.9 185.404,15.756 185.188,15.756 L182.884,15.756 C182.668,15.756 182.524,15.9 182.524,16.116 L182.524,32.64 C182.524,32.856 182.668,33 182.884,33 L185.188,33 Z M197.068,33.18 C197.284,33.18 197.428,33.036 197.428,32.82 L197.428,30.732 C197.428,30.516 197.284,30.372 197.068,30.372 L196.312,30.372 C194.764,30.372 194.116,29.904 194.116,28.176 L194.116,18.42 C194.116,18.276 194.188,18.204 194.332,18.204 L197.068,18.204 C197.284,18.204 197.428,18.06 197.428,17.844 L197.428,16.116 C197.428,15.9 197.284,15.756 197.068,15.756 L194.332,15.756 C194.188,15.756 194.116,15.684 194.116,15.54 L194.116,10.68 C194.116,10.464 193.972,10.32 193.756,10.32 L191.452,10.32 C191.236,10.32 191.092,10.464 191.092,10.68 L191.092,15.54 C191.092,15.684 191.02,15.756 190.876,15.756 L189.436,15.756 C189.22,15.756 189.076,15.9 189.076,16.116 L189.076,17.844 C189.076,18.06 189.22,18.204 189.436,18.204 L190.876,18.204 C191.02,18.204 191.092,18.276 191.092,18.42 L191.092,28.284 C191.092,31.668 192.388,33.18 195.736,33.18 L197.068,33.18 Z M213.624,33 C213.84,33 213.984,32.856 213.984,32.64 L213.984,23.352 C213.984,23.208 214.056,23.136 214.2,23.136 L219.852,23.136 C224.568,23.136 227.628,20.256 227.628,15.828 C227.628,11.4 224.568,8.52 219.852,8.52 L211.14,8.52 C210.924,8.52 210.78,8.664 210.78,8.88 L210.78,32.64 C210.78,32.856 210.924,33 211.14,33 L213.624,33 Z M219.672,20.148 L214.2,20.148 C214.056,20.148 213.984,20.076 213.984,19.932 L213.984,11.724 C213.984,11.58 214.056,11.508 214.2,11.508 L219.672,11.508 C222.696,11.508 224.46,13.164 224.46,15.828 C224.46,18.492 222.696,20.148 219.672,20.148 L219.672,20.148 Z M233.864,33 C234.08,33 234.224,32.856 234.224,32.64 L234.224,23.208 C234.224,20.22 235.304,18.168 237.932,18.168 C238.94,18.168 239.804,18.492 240.596,18.996 C240.776,19.14 240.956,19.104 241.1,18.924 L242.432,17.16 C242.576,16.98 242.54,16.836 242.36,16.656 C241.496,15.864 240.2,15.36 238.832,15.36 C236.528,15.36 235.016,16.404 234.26,17.88 L234.224,17.88 L234.224,16.116 C234.224,15.9 234.08,15.756 233.864,15.756 L231.56,15.756 C231.344,15.756 231.2,15.9 231.2,16.116 L231.2,32.64 C231.2,32.856 231.344,33 231.56,33 L233.864,33 Z M250.776,33.396 C254.124,33.396 256.644,31.668 257.58,28.752 C257.976,27.564 258.156,26.376 258.156,24.36 C258.156,22.38 257.976,21.192 257.58,20.004 C256.644,17.052 254.124,15.36 250.776,15.36 C247.428,15.36 244.908,17.052 243.972,20.004 C243.576,21.192 243.396,22.38 243.396,24.36 C243.396,26.376 243.576,27.564 243.972,28.752 C244.908,31.668 247.428,33.396 250.776,33.396 L250.776,33.396 Z M250.776,30.588 C248.868,30.588 247.464,29.616 246.888,27.888 C246.6,26.952 246.492,26.016 246.492,24.36 C246.492,22.704 246.6,21.804 246.888,20.868 C247.464,19.14 248.868,18.168 250.776,18.168 C252.684,18.168 254.088,19.14 254.664,20.868 C254.952,21.804 255.06,22.704 255.06,24.36 C255.06,26.016 254.952,26.952 254.664,27.888 C254.088,29.616 252.684,30.588 250.776,30.588 L250.776,30.588 Z" id="Site-Audit-Pro" fill="#FFFFFF"></path>
                <rect id="Rectangle-35" stroke="#FFFFFF" stroke-width="4" x="2" y="2" width="40" height="40" rx="10"></rect>
                <path d="M19.6411353,26.328758 L13.4428986,20.9410713 C13.1426545,20.6800905 12.6954101,20.7211803 12.443366,21.0323402 L11.1664046,22.6088072 C10.9140732,22.9203218 10.9532223,23.3835945 11.2532049,23.644348 L19.5178505,30.8282172 C19.6677779,30.9585384 19.8543602,31.0135377 20.0349884,30.9971995 C20.2162896,30.9809749 20.3907503,30.8932823 20.5164028,30.7381586 L32.8350308,15.5302511 C33.0852694,15.2213202 33.046915,14.7563979 32.7465406,14.4953037 L31.2247173,13.1724909 C30.9240004,12.911099 30.476958,12.9514412 30.2254554,13.2619327 L19.6411353,26.328758 L19.6411353,26.328758 Z" id="Combined-Shape" fill="#FFFFFF"></path>
            </g>
        </g>
    </g>
</svg>