<svg xmlns="http://www.w3.org/2000/svg" xmlns:xlink="http://www.w3.org/1999/xlink" width="36" height="36" viewBox="0 0 36 36">
    <defs>
        <path id="a" d="M0 .236h35.799v27.527H0z"/>
    </defs>
    <g fill="none" fill-rule="evenodd">
        <g transform="translate(0 3)">
            <mask id="b" fill="#fff">
                <use xlink:href="#a"/>
            </mask>
            <path fill="#fff" d="M31.593 25.933l-2.472-.36-1.868-4.747 3.598-1.2-1.258-3.77c.39-.07.763-.227 1.09-.471a2.57 2.57 0 0 0 1.015-1.704 2.595 2.595 0 0 0-2.192-2.937 2.579 2.579 0 0 0-1.535.254L26.844 7.62l7.255 1.053-2.506 17.26zm-5.765-4.631l1.584 4.024-9.505-1.38 7.92-2.644zm-.882-1.287L11.42 24.53l1.91-9.878 5.84 5.332 1.276-3.99 4.5 4.021zm4.16-5.62l-.65-1.943a1.092 1.092 0 1 1 1.33 1.73 1.074 1.074 0 0 1-.68.212zM1.896 9.321l21.534-7.188 5.523 16.543-2.37.791-6.861-6.134-1.27 3.965-6.088-5.56-2.579 13.336-2.366.79L1.897 9.322zm24.415-3.295L24.38.237 0 8.374l6.473 19.388 8.32-2.777-.003.023 18.073 2.623 2.937-20.228-9.487-1.377zm-5.578 1.445a1.09 1.09 0 0 1 .692 2.07 1.106 1.106 0 0 1-1.382-.69c-.19-.57.12-1.19.69-1.38zm.346 3.627a2.596 2.596 0 0 0 2.459-3.413 2.589 2.589 0 0 0-3.28-1.637 2.595 2.595 0 0 0-1.637 3.279 2.589 2.589 0 0 0 2.458 1.771z" mask="url(#b)"/>
        </g>
        <path fill="#fff" d="M12 28.5a5.5 5.5 0 1 1-11 0 5.5 5.5 0 0 1 11 0"/>
        <path fill="#FFF" d="M7 28h2v1H7v2H6v-2H4v-1h2v-2h1v2z"/>
    </g>
</svg>
